<mxfile host="app.diagrams.net" modified="2023-12-18T10:49:08.637Z" agent="Mozilla/5.0 (Windows NT 10.0; Win64; x64) AppleWebKit/537.36 (KHTML, like Gecko) Chrome/120.0.0.0 Safari/537.36" etag="r1Ui-Hm4ahgyhQNY23pt" version="22.1.11" type="device">
  <diagram name="Seite-1" id="uhXUXpTjxP7RbRrg_FZa">
    <mxGraphModel dx="819" dy="441" grid="1" gridSize="10" guides="1" tooltips="1" connect="1" arrows="1" fold="1" page="1" pageScale="1" pageWidth="827" pageHeight="1169" math="0" shadow="0">
      <root>
        <mxCell id="0" />
        <mxCell id="1" parent="0" />
        <mxCell id="sh4Ww6qw6h06otgkESir-27" style="rounded=0;orthogonalLoop=1;jettySize=auto;html=1;exitX=0;exitY=1;exitDx=0;exitDy=0;entryX=0.75;entryY=0;entryDx=0;entryDy=0;endArrow=none;endFill=0;" edge="1" parent="1" source="sh4Ww6qw6h06otgkESir-3" target="sh4Ww6qw6h06otgkESir-26">
          <mxGeometry relative="1" as="geometry" />
        </mxCell>
        <mxCell id="sh4Ww6qw6h06otgkESir-43" value="Ja" style="edgeLabel;html=1;align=center;verticalAlign=middle;resizable=0;points=[];" vertex="1" connectable="0" parent="sh4Ww6qw6h06otgkESir-27">
          <mxGeometry x="0.0167" relative="1" as="geometry">
            <mxPoint as="offset" />
          </mxGeometry>
        </mxCell>
        <mxCell id="sh4Ww6qw6h06otgkESir-36" style="rounded=0;orthogonalLoop=1;jettySize=auto;html=1;exitX=1;exitY=1;exitDx=0;exitDy=0;entryX=0.25;entryY=0;entryDx=0;entryDy=0;endArrow=none;endFill=0;" edge="1" parent="1" source="sh4Ww6qw6h06otgkESir-3" target="sh4Ww6qw6h06otgkESir-35">
          <mxGeometry relative="1" as="geometry" />
        </mxCell>
        <mxCell id="sh4Ww6qw6h06otgkESir-44" value="Nein" style="edgeLabel;html=1;align=center;verticalAlign=middle;resizable=0;points=[];" vertex="1" connectable="0" parent="sh4Ww6qw6h06otgkESir-36">
          <mxGeometry x="0.0607" relative="1" as="geometry">
            <mxPoint as="offset" />
          </mxGeometry>
        </mxCell>
        <mxCell id="sh4Ww6qw6h06otgkESir-3" value="3" style="ellipse;whiteSpace=wrap;html=1;aspect=fixed;" vertex="1" parent="1">
          <mxGeometry x="120" y="400" width="80" height="80" as="geometry" />
        </mxCell>
        <mxCell id="sh4Ww6qw6h06otgkESir-37" style="rounded=0;orthogonalLoop=1;jettySize=auto;html=1;exitX=0;exitY=1;exitDx=0;exitDy=0;entryX=0.75;entryY=0;entryDx=0;entryDy=0;endArrow=none;endFill=0;" edge="1" parent="1" source="sh4Ww6qw6h06otgkESir-4" target="sh4Ww6qw6h06otgkESir-28">
          <mxGeometry relative="1" as="geometry" />
        </mxCell>
        <mxCell id="sh4Ww6qw6h06otgkESir-45" value="Ja" style="edgeLabel;html=1;align=center;verticalAlign=middle;resizable=0;points=[];" vertex="1" connectable="0" parent="sh4Ww6qw6h06otgkESir-37">
          <mxGeometry x="0.2325" y="-1" relative="1" as="geometry">
            <mxPoint as="offset" />
          </mxGeometry>
        </mxCell>
        <mxCell id="sh4Ww6qw6h06otgkESir-38" style="rounded=0;orthogonalLoop=1;jettySize=auto;html=1;exitX=1;exitY=1;exitDx=0;exitDy=0;entryX=0.25;entryY=0;entryDx=0;entryDy=0;endArrow=none;endFill=0;" edge="1" parent="1" source="sh4Ww6qw6h06otgkESir-4" target="sh4Ww6qw6h06otgkESir-29">
          <mxGeometry relative="1" as="geometry" />
        </mxCell>
        <mxCell id="sh4Ww6qw6h06otgkESir-46" value="Nein" style="edgeLabel;html=1;align=center;verticalAlign=middle;resizable=0;points=[];" vertex="1" connectable="0" parent="sh4Ww6qw6h06otgkESir-38">
          <mxGeometry x="0.1404" y="-1" relative="1" as="geometry">
            <mxPoint as="offset" />
          </mxGeometry>
        </mxCell>
        <mxCell id="sh4Ww6qw6h06otgkESir-4" value="3" style="ellipse;whiteSpace=wrap;html=1;aspect=fixed;" vertex="1" parent="1">
          <mxGeometry x="280" y="400" width="80" height="80" as="geometry" />
        </mxCell>
        <mxCell id="sh4Ww6qw6h06otgkESir-39" style="rounded=0;orthogonalLoop=1;jettySize=auto;html=1;exitX=0;exitY=1;exitDx=0;exitDy=0;entryX=0.75;entryY=0;entryDx=0;entryDy=0;endArrow=none;endFill=0;" edge="1" parent="1" source="sh4Ww6qw6h06otgkESir-5" target="sh4Ww6qw6h06otgkESir-30">
          <mxGeometry relative="1" as="geometry" />
        </mxCell>
        <mxCell id="sh4Ww6qw6h06otgkESir-47" value="Ja" style="edgeLabel;html=1;align=center;verticalAlign=middle;resizable=0;points=[];" vertex="1" connectable="0" parent="sh4Ww6qw6h06otgkESir-39">
          <mxGeometry x="0.1473" y="-1" relative="1" as="geometry">
            <mxPoint as="offset" />
          </mxGeometry>
        </mxCell>
        <mxCell id="sh4Ww6qw6h06otgkESir-40" style="rounded=0;orthogonalLoop=1;jettySize=auto;html=1;exitX=1;exitY=1;exitDx=0;exitDy=0;entryX=0.25;entryY=0;entryDx=0;entryDy=0;endArrow=none;endFill=0;" edge="1" parent="1" source="sh4Ww6qw6h06otgkESir-5" target="sh4Ww6qw6h06otgkESir-31">
          <mxGeometry relative="1" as="geometry" />
        </mxCell>
        <mxCell id="sh4Ww6qw6h06otgkESir-48" value="Nein" style="edgeLabel;html=1;align=center;verticalAlign=middle;resizable=0;points=[];" vertex="1" connectable="0" parent="sh4Ww6qw6h06otgkESir-40">
          <mxGeometry x="0.0153" relative="1" as="geometry">
            <mxPoint as="offset" />
          </mxGeometry>
        </mxCell>
        <mxCell id="sh4Ww6qw6h06otgkESir-5" value="3" style="ellipse;whiteSpace=wrap;html=1;aspect=fixed;" vertex="1" parent="1">
          <mxGeometry x="440" y="400" width="80" height="80" as="geometry" />
        </mxCell>
        <mxCell id="sh4Ww6qw6h06otgkESir-41" style="rounded=0;orthogonalLoop=1;jettySize=auto;html=1;exitX=0;exitY=1;exitDx=0;exitDy=0;entryX=0.75;entryY=0;entryDx=0;entryDy=0;endArrow=none;endFill=0;" edge="1" parent="1" source="sh4Ww6qw6h06otgkESir-6" target="sh4Ww6qw6h06otgkESir-33">
          <mxGeometry relative="1" as="geometry" />
        </mxCell>
        <mxCell id="sh4Ww6qw6h06otgkESir-49" value="Ja" style="edgeLabel;html=1;align=center;verticalAlign=middle;resizable=0;points=[];" vertex="1" connectable="0" parent="sh4Ww6qw6h06otgkESir-41">
          <mxGeometry x="0.0195" y="-1" relative="1" as="geometry">
            <mxPoint as="offset" />
          </mxGeometry>
        </mxCell>
        <mxCell id="sh4Ww6qw6h06otgkESir-42" style="rounded=0;orthogonalLoop=1;jettySize=auto;html=1;exitX=1;exitY=1;exitDx=0;exitDy=0;entryX=0.25;entryY=0;entryDx=0;entryDy=0;endArrow=none;endFill=0;" edge="1" parent="1" source="sh4Ww6qw6h06otgkESir-6" target="sh4Ww6qw6h06otgkESir-32">
          <mxGeometry relative="1" as="geometry" />
        </mxCell>
        <mxCell id="sh4Ww6qw6h06otgkESir-50" value="Nein" style="edgeLabel;html=1;align=center;verticalAlign=middle;resizable=0;points=[];" vertex="1" connectable="0" parent="sh4Ww6qw6h06otgkESir-42">
          <mxGeometry x="0.0662" y="2" relative="1" as="geometry">
            <mxPoint as="offset" />
          </mxGeometry>
        </mxCell>
        <mxCell id="sh4Ww6qw6h06otgkESir-6" value="3" style="ellipse;whiteSpace=wrap;html=1;aspect=fixed;" vertex="1" parent="1">
          <mxGeometry x="600" y="400" width="80" height="80" as="geometry" />
        </mxCell>
        <mxCell id="sh4Ww6qw6h06otgkESir-12" style="rounded=0;orthogonalLoop=1;jettySize=auto;html=1;exitX=0;exitY=1;exitDx=0;exitDy=0;entryX=1;entryY=0;entryDx=0;entryDy=0;endArrow=none;endFill=0;" edge="1" parent="1" source="sh4Ww6qw6h06otgkESir-7" target="sh4Ww6qw6h06otgkESir-5">
          <mxGeometry relative="1" as="geometry" />
        </mxCell>
        <mxCell id="sh4Ww6qw6h06otgkESir-20" value="JA" style="edgeLabel;html=1;align=center;verticalAlign=middle;resizable=0;points=[];" vertex="1" connectable="0" parent="sh4Ww6qw6h06otgkESir-12">
          <mxGeometry x="0.1015" y="1" relative="1" as="geometry">
            <mxPoint as="offset" />
          </mxGeometry>
        </mxCell>
        <mxCell id="sh4Ww6qw6h06otgkESir-13" style="rounded=0;orthogonalLoop=1;jettySize=auto;html=1;exitX=1;exitY=1;exitDx=0;exitDy=0;entryX=0;entryY=0;entryDx=0;entryDy=0;endArrow=none;endFill=0;" edge="1" parent="1" source="sh4Ww6qw6h06otgkESir-7" target="sh4Ww6qw6h06otgkESir-6">
          <mxGeometry relative="1" as="geometry" />
        </mxCell>
        <mxCell id="sh4Ww6qw6h06otgkESir-21" value="Nein" style="edgeLabel;html=1;align=center;verticalAlign=middle;resizable=0;points=[];" vertex="1" connectable="0" parent="sh4Ww6qw6h06otgkESir-13">
          <mxGeometry x="-0.099" y="-2" relative="1" as="geometry">
            <mxPoint as="offset" />
          </mxGeometry>
        </mxCell>
        <mxCell id="sh4Ww6qw6h06otgkESir-7" value="2" style="ellipse;whiteSpace=wrap;html=1;aspect=fixed;" vertex="1" parent="1">
          <mxGeometry x="520" y="310" width="80" height="80" as="geometry" />
        </mxCell>
        <mxCell id="sh4Ww6qw6h06otgkESir-10" style="rounded=0;orthogonalLoop=1;jettySize=auto;html=1;exitX=0;exitY=1;exitDx=0;exitDy=0;entryX=1;entryY=0;entryDx=0;entryDy=0;endArrow=none;endFill=0;" edge="1" parent="1" source="sh4Ww6qw6h06otgkESir-8" target="sh4Ww6qw6h06otgkESir-3">
          <mxGeometry relative="1" as="geometry" />
        </mxCell>
        <mxCell id="sh4Ww6qw6h06otgkESir-18" value="JA" style="edgeLabel;html=1;align=center;verticalAlign=middle;resizable=0;points=[];" vertex="1" connectable="0" parent="sh4Ww6qw6h06otgkESir-10">
          <mxGeometry x="0.1474" y="-1" relative="1" as="geometry">
            <mxPoint as="offset" />
          </mxGeometry>
        </mxCell>
        <mxCell id="sh4Ww6qw6h06otgkESir-11" style="rounded=0;orthogonalLoop=1;jettySize=auto;html=1;exitX=1;exitY=1;exitDx=0;exitDy=0;entryX=0;entryY=0;entryDx=0;entryDy=0;endArrow=none;endFill=0;" edge="1" parent="1" source="sh4Ww6qw6h06otgkESir-8" target="sh4Ww6qw6h06otgkESir-4">
          <mxGeometry relative="1" as="geometry" />
        </mxCell>
        <mxCell id="sh4Ww6qw6h06otgkESir-19" value="Nein" style="edgeLabel;html=1;align=center;verticalAlign=middle;resizable=0;points=[];" vertex="1" connectable="0" parent="sh4Ww6qw6h06otgkESir-11">
          <mxGeometry x="-0.0712" y="-1" relative="1" as="geometry">
            <mxPoint as="offset" />
          </mxGeometry>
        </mxCell>
        <mxCell id="sh4Ww6qw6h06otgkESir-8" value="2" style="ellipse;whiteSpace=wrap;html=1;aspect=fixed;" vertex="1" parent="1">
          <mxGeometry x="200" y="310" width="80" height="80" as="geometry" />
        </mxCell>
        <mxCell id="sh4Ww6qw6h06otgkESir-14" style="rounded=0;orthogonalLoop=1;jettySize=auto;html=1;exitX=1;exitY=1;exitDx=0;exitDy=0;entryX=0;entryY=0;entryDx=0;entryDy=0;endArrow=none;endFill=0;" edge="1" parent="1" source="sh4Ww6qw6h06otgkESir-9" target="sh4Ww6qw6h06otgkESir-7">
          <mxGeometry relative="1" as="geometry" />
        </mxCell>
        <mxCell id="sh4Ww6qw6h06otgkESir-22" value="Nein" style="edgeLabel;html=1;align=center;verticalAlign=middle;resizable=0;points=[];" vertex="1" connectable="0" parent="sh4Ww6qw6h06otgkESir-14">
          <mxGeometry x="-0.2635" y="-2" relative="1" as="geometry">
            <mxPoint as="offset" />
          </mxGeometry>
        </mxCell>
        <mxCell id="sh4Ww6qw6h06otgkESir-15" style="rounded=0;orthogonalLoop=1;jettySize=auto;html=1;exitX=0;exitY=1;exitDx=0;exitDy=0;entryX=1;entryY=0;entryDx=0;entryDy=0;endArrow=none;endFill=0;" edge="1" parent="1" source="sh4Ww6qw6h06otgkESir-9" target="sh4Ww6qw6h06otgkESir-8">
          <mxGeometry relative="1" as="geometry" />
        </mxCell>
        <mxCell id="sh4Ww6qw6h06otgkESir-17" value="JA" style="edgeLabel;html=1;align=center;verticalAlign=middle;resizable=0;points=[];" vertex="1" connectable="0" parent="sh4Ww6qw6h06otgkESir-15">
          <mxGeometry x="0.2679" y="-4" relative="1" as="geometry">
            <mxPoint as="offset" />
          </mxGeometry>
        </mxCell>
        <mxCell id="sh4Ww6qw6h06otgkESir-9" value="1" style="ellipse;whiteSpace=wrap;html=1;aspect=fixed;" vertex="1" parent="1">
          <mxGeometry x="360" y="220" width="80" height="80" as="geometry" />
        </mxCell>
        <mxCell id="sh4Ww6qw6h06otgkESir-26" value="{1,2,3}" style="rounded=0;whiteSpace=wrap;html=1;" vertex="1" parent="1">
          <mxGeometry x="100" y="495" width="40" height="25" as="geometry" />
        </mxCell>
        <mxCell id="sh4Ww6qw6h06otgkESir-28" value="{1,3}" style="rounded=0;whiteSpace=wrap;html=1;" vertex="1" parent="1">
          <mxGeometry x="260" y="495" width="40" height="25" as="geometry" />
        </mxCell>
        <mxCell id="sh4Ww6qw6h06otgkESir-29" value="{1}" style="rounded=0;whiteSpace=wrap;html=1;" vertex="1" parent="1">
          <mxGeometry x="340" y="495" width="40" height="25" as="geometry" />
        </mxCell>
        <mxCell id="sh4Ww6qw6h06otgkESir-30" value="{2,3}" style="rounded=0;whiteSpace=wrap;html=1;" vertex="1" parent="1">
          <mxGeometry x="420" y="495" width="40" height="25" as="geometry" />
        </mxCell>
        <mxCell id="sh4Ww6qw6h06otgkESir-31" value="{2}" style="rounded=0;whiteSpace=wrap;html=1;" vertex="1" parent="1">
          <mxGeometry x="500" y="495" width="40" height="25" as="geometry" />
        </mxCell>
        <mxCell id="sh4Ww6qw6h06otgkESir-32" value="{}" style="rounded=0;whiteSpace=wrap;html=1;" vertex="1" parent="1">
          <mxGeometry x="660" y="495" width="40" height="25" as="geometry" />
        </mxCell>
        <mxCell id="sh4Ww6qw6h06otgkESir-33" value="{3}" style="rounded=0;whiteSpace=wrap;html=1;" vertex="1" parent="1">
          <mxGeometry x="580" y="495" width="40" height="25" as="geometry" />
        </mxCell>
        <mxCell id="sh4Ww6qw6h06otgkESir-35" value="{1,2}" style="rounded=0;whiteSpace=wrap;html=1;" vertex="1" parent="1">
          <mxGeometry x="180" y="495" width="40" height="25" as="geometry" />
        </mxCell>
      </root>
    </mxGraphModel>
  </diagram>
</mxfile>
